<?xml version="1.0" encoding="utf-8"?>
<!-- Generator: Adobe Illustrator 26.3.1, SVG Export Plug-In . SVG Version: 6.00 Build 0)  -->
<svg version="1.1" id="Layer_1" xmlns="http://www.w3.org/2000/svg" xmlns:xlink="http://www.w3.org/1999/xlink" x="0px" y="0px"
	 viewBox="0 0 749 134" style="enable-background:new 0 0 749 134;" xml:space="preserve">
<style type="text/css">
	.st0{fill:#FFFFFF;}
	.st1{fill-rule:evenodd;clip-rule:evenodd;fill:#FFFFFF;}
</style>
<path class="st0" d="M193.9,24.5h13.7v17.4h11.3v10.4h-11.2v44c-1.9,0-3.7-0.3-5.2-0.7c-1.7-0.4-3.1-1.2-4.4-2.3
	c-1.2-1-2.3-2.4-3-4.1c-0.7-1.7-1.1-3.7-1.1-6V52.6h-7.1V42.1h7.1V24.5L193.9,24.5z"/>
<path class="st0" d="M50,61.4c-2-1.6-4.4-3-7.2-4c-2.8-1-5.9-2.1-9.4-3c-2.6-0.6-5-1.2-7-1.9c-2-0.6-3.7-1.2-5-2
	c-1.4-0.7-2.3-1.6-3-2.5c-0.7-1-1-2.2-1-3.7c0-2.5,1-4.5,2.8-5.8c1.9-1.4,4.7-2.1,8.4-2.1c2.1,0,4.2,0.3,6.3,0.9
	c2.1,0.5,4,1.1,5.7,2c1.7,0.7,3.2,1.6,4.5,2.3c1.2,0.9,2.1,1.5,2.5,1.9l6.1-11.1c-3.1-2.1-6.8-4-11-5.6c-4.2-1.6-8.8-2.3-13.7-2.3
	c-3.6,0-6.9,0.5-10,1.5c-3.1,1-5.8,2.4-8.3,4.2c-2.4,1.9-4.2,4.2-5.6,7c-1.4,2.8-2,5.9-2,9.5c0,2.7,0.4,5,1.2,7
	c0.9,2,2.1,3.7,3.7,5.2c1.7,1.5,3.7,2.8,6.3,3.8c2.5,1,5.4,2.1,8.8,3c2.8,0.9,5.3,1.6,7.5,2.2c2.3,0.6,4.2,1.4,5.7,2.2
	c1.6,0.9,2.8,1.7,3.7,2.8c0.9,1,1.2,2.4,1.2,3.8c0,4.8-3.7,7.3-11.4,7.3c-2.7,0-5.3-0.3-7.9-1c-2.6-0.6-4.9-1.5-7.1-2.4
	c-2.1-1-4-1.9-5.6-3c-1.6-1-2.6-1.7-3.2-2.3L0,86.9c4.1,3,8.8,5.2,13.9,6.8c5.2,1.6,10.4,2.4,15.7,2.4c3.5,0,6.8-0.4,9.9-1.1
	s5.9-2,8.4-3.7c2.4-1.7,4.4-3.8,5.7-6.4c1.5-2.7,2.1-5.9,2.1-9.7c0-3.2-0.5-5.9-1.6-8.3C53.5,65,51.9,63.1,50,61.4z"/>
<path class="st1" d="M112.9,49.1c-2.2-2.5-4.9-4.5-7.9-5.9c-3-1.5-6.4-2.2-10-2.2c-4.1,0-7.7,1-10.9,2.7c-3.1,1.7-5.7,4.3-7.7,7.4
	v-9.1h-12v61.7c0,7.6,6.2,13.7,13.7,13.7V86.1c1.7,3.2,4.3,5.7,7.4,7.6c3.1,1.9,6.8,2.8,11.1,2.8c3.5,0,6.6-0.7,9.4-2.2
	c2.8-1.5,5.3-3.5,7.4-5.9c2.1-2.5,3.7-5.6,4.9-8.9c1.1-3.5,1.7-7,1.7-11c0-3.7-0.6-7.3-1.9-10.7C116.8,54.6,115,51.6,112.9,49.1z
	 M104.9,74.7c-0.7,2-1.7,3.7-2.8,5.2c-1.2,1.5-2.7,2.7-4.5,3.6c-1.7,1-3.7,1.4-5.7,1.4c-3,0-5.7-1-8.3-3c-2.5-2-4.4-4.6-5.7-7.6
	V61.7c0.5-1.2,1.1-2.5,2.1-3.6c1-1,2-2.1,3.1-2.8c1.1-0.9,2.4-1.5,3.7-1.9c1.4-0.4,2.7-0.6,4-0.6c2.1,0,4.1,0.4,5.8,1.2
	c1.7,0.9,3.3,2,4.7,3.3c1.4,1.5,2.4,3.1,3.1,5.1c0.7,2,1.1,4.1,1.1,6.3C105.9,70.7,105.5,72.7,104.9,74.7z"/>
<path class="st1" d="M165.9,43.2c3.5,1.5,6.4,3.5,8.8,6c2.4,2.5,4.3,5.6,5.7,8.9c1.4,3.3,2,6.9,2,10.6c0,3.7-0.7,7.2-2,10.5
	c-1.2,3.3-3.1,6.3-5.6,8.9c-2.4,2.5-5.3,4.6-8.8,6c-3.6,1.6-7.4,2.3-11.8,2.3c-4.3,0-8.4-0.9-11.8-2.3c-3.5-1.5-6.4-3.5-8.9-6
	c-2.4-2.6-4.3-5.6-5.6-8.9c-1.4-3.3-2-6.9-2-10.5c0-3.7,0.7-7.3,2-10.6c1.2-3.3,3.1-6.3,5.6-8.9c2.4-2.5,5.4-4.6,8.9-6
	c3.6-1.6,7.4-2.3,11.8-2.3C158.5,41,162.5,41.9,165.9,43.2z M164.2,80.4c1.2-1.5,2.2-3.1,3-5.1c0.7-2,1-4.2,1-6.5
	c0-2.3-0.3-4.5-1-6.4c-0.6-2-1.7-3.7-3-5.1c-1.2-1.5-2.8-2.5-4.5-3.3c-1.7-0.7-3.6-1.1-5.6-1.1c-2,0-3.8,0.4-5.6,1.2
	c-1.7,0.7-3.2,1.9-4.5,3.3c-1.2,1.5-2.2,3.1-3,5.1c-0.7,2-1,4.2-1,6.4c0,2.4,0.3,4.5,1,6.4c0.6,2,1.7,3.7,3,5.1
	c1.2,1.5,2.8,2.5,4.5,3.3c1.7,0.7,3.6,1.1,5.6,1.1c2,0,3.8-0.3,5.6-1.1C161.4,82.9,162.9,81.9,164.2,80.4z"/>
<path class="st0" d="M266.1,58.1c3.6-4.3,5.6-9.7,5.6-15.2v-1h-44.4v11.5h27.1l-22.7,27c-3.6,4.3-5.6,9.7-5.6,15.2v1h46.1V85.1
	h-28.5L266.1,58.1z"/>
<path class="st1" d="M316.8,43c3.5,1.5,6.4,3.6,8.9,6c2.4,2.5,4.3,5.6,5.8,8.9c1.2,3.3,1.9,6.9,1.9,10.5V71
	c-0.1,0.9-0.2,1.6-0.3,2.1l-0.1,0.3h-41.2c0.2,1.9,0.7,3.7,1.5,5.1c0.7,1.6,1.7,3,3,4.1c1.2,1.1,2.7,2,4.3,2.6c1.7,0.6,3.3,1,5,1
	c2.6,0,5.2-0.7,7.5-2c2.3-1.4,4-3,4.8-5.1l0.1-0.3l12.4,3.5l-0.2,0.4c-2.1,4.1-5.2,7.5-9.7,10.1c-4.4,2.6-9.7,4-15.7,4
	c-4.4,0-8.4-0.7-11.8-2.2c-3.5-1.5-6.4-3.6-9-6.1c-2.5-2.5-4.4-5.6-5.7-8.9c-1.4-3.3-2-7-2-10.6c0-3.8,0.7-7.5,2-10.9
	c1.2-3.3,3.1-6.4,5.7-9c2.4-2.6,5.4-4.7,9-6.2c3.6-1.6,7.6-2.3,11.9-2.3C309.4,40.6,313.4,41.5,316.8,43z M292.8,58.8
	c-0.7,1.5-1.1,3.1-1.4,4.9h27c-0.4-3.7-1.9-6.7-4.3-9c-2.5-2.4-5.7-3.6-9.3-3.6c-1.8,0-3.5,0.3-5,1c-1.5,0.6-3,1.5-4.1,2.6
	C294.5,55.9,293.5,57.3,292.8,58.8z"/>
<path class="st0" d="M370.8,40.9c-1.5,0-3,0.3-4.5,0.9c-1.6,0.6-3,1.5-4.6,2.5c-1.5,1.1-3,2.4-4.2,3.8c-1.4,1.5-2.4,3.1-3.5,5V41.9
	h-12.6v40.9c0,7.6,6.2,13.7,13.7,13.7V62.9c1.5-3.1,3.8-5.4,7.1-7c3.3-1.6,7-2.4,11.3-2.4V40.9H370.8z"/>
<path class="st0" d="M552.5,76.3V63.4c-1.2-3.2-3.1-5.7-5.8-7.7c-2.6-2-5.4-2.9-8.4-2.9c-0.5,0-1,0-1.6,0.1c-1.6,0.2-3,0.6-4.3,1.3
	c-1.7,1-3.2,2.2-4.4,3.7c-0.3,0.3-0.6,0.8-0.9,1.2c-0.8,1.2-1.5,2.6-1.9,4.1c-0.4,1.6-0.8,3-0.9,4.6c0,0.5-0.1,1-0.1,1.6
	c0,2.3,0.4,4.3,1.1,6.3c0.2,0.5,0.3,1,0.6,1.4c0.7,1.4,1.5,2.6,2.5,3.7c1.3,1.5,2.9,2.6,4.7,3.4c1.9,0.9,3.7,1.2,5.9,1.2
	c1.6,0,3-0.2,4.4-0.7c1.4-0.5,2.7-1.1,3.8-2c1.1-0.9,2.2-1.7,3.1-2.9C551.5,78.7,552.1,77.6,552.5,76.3L552.5,76.3L552.5,76.3z"/>
<path class="st0" d="M678.3,55.5c-1.2-1-2.6-1.7-4-2.2c-1.5-0.5-2.8-0.9-4.2-0.9c-2.1,0-4,0.4-5.7,1.4c-1.7,1-3.2,2.1-4.5,3.7
	c-1.2,1.6-2.2,3.3-2.9,5.3c-0.7,2-1,4.1-1,6.1c0,2.3,0.4,4.4,1.1,6.3c0.7,1.8,1.7,3.6,3,5c1.4,1.4,3,2.5,4.7,3.3
	c1.7,0.9,3.7,1.2,5.9,1.2c1.2,0,2.6-0.2,3.9-0.6c1.4-0.4,2.6-1,3.7-1.8c1.1-0.9,2.2-1.8,3.1-2.9c1-1,1.6-2.3,2.1-3.6h0.2V62.9
	c-0.5-1.6-1.4-2.9-2.3-4.2C680.6,57.5,679.5,56.5,678.3,55.5z"/>
<path class="st0" d="M455.7,58.7c-0.7-1-1.6-1.7-2.4-2.5c-0.3-0.3-0.6-0.5-0.9-0.7c-1.2-1-2.6-1.7-4-2.2c-1.5-0.5-2.8-0.9-4.2-0.9
	c-2.1,0-3.9,0.4-5.7,1.4c-1.7,1-3.2,2.1-4.5,3.7c-1.2,1.6-2.2,3.3-2.9,5.3c-0.7,2-1,4.1-1,6.1c0,2.3,0.4,4.4,1.1,6.3
	c0.7,1.9,1.7,3.6,3,5c1.4,1.4,2.9,2.5,4.7,3.3c1.7,0.9,3.7,1.2,5.9,1.2c1.2,0,2.6-0.2,3.9-0.6c1.4-0.4,2.6-1,3.7-1.9
	c1.1-0.9,2.2-1.8,3.1-2.9c1-1,1.6-2.3,2.1-3.6h0.2V62.8c-0.2-0.3-0.3-0.8-0.4-1.1C457,60.6,456.4,59.7,455.7,58.7z"/>
<path class="st0" d="M726.6,0H412.7c-12.1,0-21.8,9.7-21.8,21.8v90.5c0,12,9.7,21.8,21.8,21.8h313.9c12.1,0,21.8-9.7,21.8-21.8V21.8
	C748.5,9.7,738.7,0,726.6,0z M484,30.8c0.2-2.1,1.3-3.8,3-4.9c1.1-0.7,2.4-1.1,3.8-1.1s2.7,0.4,3.8,1.1c1.7,1.1,2.7,2.9,3,4.9
	c0,0.3,0,0.4,0,0.7c0,3.3-2.3,6-5.4,6.6c-0.4,0.1-0.9,0.2-1.4,0.2h-0.1c-0.4,0-1-0.1-1.4-0.2c-3.1-0.6-5.4-3.3-5.4-6.6
	C483.9,31.3,483.9,31.1,484,30.8z M471.6,43.7v1v35.2l-0.1,16.7h-6.7h-7l0.1-7.4c-1.7,2-3.7,3.6-6,4.8c-3.4,1.7-7,2.6-10.6,2.6
	c-1.4,0-2.7-0.1-4-0.3c-2.2-0.3-4.3-1-6.2-1.9c-2.3-1.1-4.4-2.4-6.4-4.2c-0.6-0.5-1.2-1.1-1.8-1.7c-2.3-2.5-4.1-5.5-5.3-8.9
	c-1.2-3.4-1.8-7-1.8-10.9c0-3.8,0.6-7.5,1.7-10.8c1.2-3.4,3-6.4,5-8.8c2.2-2.5,4.7-4.4,7.6-5.9c2.9-1.5,6.2-2.2,9.6-2.2
	c3.5,0,6.7,0.8,9.5,2.3c0.4,0.2,0.8,0.4,1.2,0.7c3.1,2,5.7,4.4,7.4,7.5v-7.8v-5.1c0-1,0.1-1.9,0.3-2.8c0.5-2.7,1.9-5,3.7-7
	c0.3-0.3,0.6-0.6,1-0.9c0.7-0.5,1.4-1,2.2-1.5c2-1,4.2-1.7,6.6-1.6L471.6,43.7L471.6,43.7z M497.6,96.5h-13.7V55.6
	c0-7.1,5.4-13,12.4-13.6c0.4,0,1-0.1,1.4-0.1V96.5z M566.6,91.6c0,4.1-0.7,7.6-2.3,10.8c-1.5,3.2-3.6,5.9-6.3,8.1
	c-2.7,2.2-5.9,3.9-9.6,5.1c-3.5,1.1-7.2,1.7-11.2,1.7H537c-3-0.1-5.7-0.5-8.2-1.1c-3.7-0.9-7-2.1-9.7-3.8c-0.6-0.4-1.2-0.9-1.7-1.2
	l1.7-3.2l2.3-4.2l0.9-1.6l0.3-0.6c3.7,3,9.1,5.2,14.6,5.4c1.9,0,3.7-0.3,5.5-0.9c2-0.5,3.7-1.5,5.2-2.7c1.5-1.2,2.7-2.8,3.6-4.8
	c0.9-2,1.2-4.3,1.2-6.9V87c-1.9,3.1-4.4,5.5-7.6,7.1c-3.3,1.7-6.8,2.5-10.5,2.5c-3.7,0-7-0.7-10-2.2c-2.9-1.5-5.5-3.4-7.7-5.9
	c-2.2-2.5-3.8-5.4-5-8.7c-1.1-3.3-1.7-6.9-1.7-10.6c0-3.9,0.6-7.6,1.9-11.1c1.2-3.4,3-6.4,5.2-9c2.3-2.6,4.9-4.6,8-6
	c3.1-1.5,6.5-2.2,10.4-2.2c4.3,0,7.9,1,11.1,2.8c3.2,1.8,5.8,4.4,7.9,7.6h0.1v-9.5h12.1v49.7H566.6z M592.6,96.5H579V55.6
	c0-7.6,6.2-13.7,13.7-13.6V96.5z M585.9,38.3L585.9,38.3c-0.5,0-1-0.1-1.5-0.2c-3.1-0.6-5.4-3.3-5.4-6.6c0-0.3,0-0.4,0-0.7
	c0.2-2.1,1.3-3.8,3-4.9c1.1-0.7,2.4-1.1,3.8-1.1c3.7,0,6.8,3,6.8,6.8C592.6,35.2,589.6,38.3,585.9,38.3z M637.3,52.6h-11.2v20.8v5.3
	v17.8c-1.9,0-3.7-0.3-5.2-0.7c-1.7-0.4-3.1-1.2-4.4-2.3c-1.2-1-2.3-2.3-3-4.1c-0.7-1.7-1.1-3.7-1.1-6V52.7h-7V42.2h7V24.8H626V42
	h11.3V52.6z M697.5,43.7v0.7v0.3v35.2l-0.1,16.7h-6.7h-7l0.1-7.4c-1.7,2-3.7,3.6-6,4.8c-3.5,1.7-7,2.6-10.6,2.6
	c-3.7,0-7-0.7-10.2-2.2c-3.1-1.5-5.8-3.4-8.1-5.9c-2.3-2.5-4.1-5.5-5.3-8.8c-1.2-3.4-1.9-7-1.9-10.9s0.6-7.5,1.7-10.8
	c1.2-3.4,2.9-6.4,5-8.8c2.2-2.5,4.7-4.4,7.6-5.9c2.9-1.5,6.2-2.2,9.6-2.2c3.5,0,6.7,0.8,9.5,2.3c0.4,0.2,0.8,0.4,1.2,0.7
	c3.1,2,5.7,4.4,7.4,7.5v-7v-0.7h0.1v-1.6h13.7V43.7z M723.6,77.2v19.2h-13.7V67.2V37.9c0-0.5,0-1,0.1-1.6c0.3-3.5,1.4-6.2,3.5-8.2
	c1.2-1.1,2.6-2,4.3-2.6s3.6-0.9,5.7-0.9h0.2L723.6,77.2L723.6,77.2z"/>
</svg>
