<?xml version="1.0" encoding="utf-8"?>
<!-- Generator: Adobe Illustrator 26.2.1, SVG Export Plug-In . SVG Version: 6.00 Build 0)  -->
<svg version="1.1" id="Layer_1" xmlns="http://www.w3.org/2000/svg" xmlns:xlink="http://www.w3.org/1999/xlink" x="0px" y="0px"
	 viewBox="0 0 511 258.3" style="enable-background:new 0 0 511 258.3;" xml:space="preserve">
<path d="M246,164c-3.3-3.4-7.2-6.1-11.9-8.2c-4.7-2-9.9-3-15.8-3s-11.2,1-16,3c-4.7,2-8.8,4.8-12.1,8.2c-3.4,3.5-5.9,7.5-7.6,12
	c-1.8,4.6-2.6,9.5-2.6,14.6c0,5,0.9,9.7,2.7,14.3c1.8,4.5,4.3,8.5,7.7,11.9c3.4,3.4,7.4,6.1,12,8.1c4.7,2,10,3,15.8,3
	c8.2,0,15.1-1.8,21-5.3s10.1-8.1,12.8-13.7l-15.9-4.4c-1.2,3-3.4,5.3-6.7,7.2c-3.3,1.8-6.8,2.7-10.5,2.7c-2.4,0-4.7-0.4-6.9-1.2
	c-2.2-0.9-4.2-2-6-3.6c-1.8-1.6-3.2-3.5-4.3-5.7s-1.8-4.7-2.1-7.6h56.1c0.2-0.7,0.3-1.6,0.3-2.8c0.1-1.1,0.1-2.2,0.1-3.5
	c0-4.9-0.9-9.6-2.6-14.1C251.7,171.4,249.3,167.4,246,164z M199.2,184.2c0.2-2.7,0.8-5.1,1.8-7.4c1.1-2.2,2.4-4.1,4.1-5.7
	c1.6-1.6,3.6-2.8,5.7-3.7c2.2-0.9,4.5-1.3,7-1.3c5.1,0,9.4,1.6,13,4.9s5.6,7.6,6,13.1h-37.6L199.2,184.2L199.2,184.2z M330.7,161.7
	c-1.6-2.7-3.8-4.9-6.6-6.5c-2.9-1.6-6.6-2.5-11.1-2.5c-6.4,0-12.1,1.3-17.2,3.9s-8.9,6.2-11.6,10.8V154h-16.8v74h18.5v-43.9
	c0.7-2.2,1.6-4.3,3-6.1c1.4-1.8,3-3.4,4.7-4.8c1.7-1.3,3.6-2.4,5.5-3.1c2-0.7,3.8-1.1,5.7-1.1c3.6,0,6.4,1.3,8.5,4
	c2,2.7,3,6.9,3,12.8v42.1h18.5v-46.7c0-3.5-0.3-7-0.9-10.4C333.3,167.4,332.2,164.4,330.7,161.7z M394.2,209.7
	c-2.8,1.6-5.9,2.5-9.2,2.5c-2.6,0-5.1-0.5-7.4-1.6c-2.3-1.1-4.3-2.6-6-4.5c-1.7-2-3.1-4.3-4.1-6.9c-1-2.7-1.5-5.7-1.5-8.9
	c0-3.2,0.5-6.2,1.4-8.9c1-2.7,2.3-5,4-6.8c1.7-1.9,3.7-3.4,6-4.4c2.3-1.1,4.8-1.6,7.5-1.6c3.2,0,6,0.7,8.6,2.2
	c2.6,1.4,4.7,3.5,6.2,6.2l18.1-5.5c-2.8-5.5-7-10-12.6-13.4s-12.4-5.1-20.3-5.1c-5.9,0-11.2,1-15.9,3c-4.7,2-8.7,4.7-12,8.2
	c-3.4,3.4-5.9,7.4-7.6,11.9c-1.8,4.5-2.6,9.3-2.6,14.4c0,5,0.9,9.8,2.7,14.3c1.8,4.6,4.3,8.6,7.7,12c3.4,3.5,7.4,6.2,12,8.2
	c4.7,2,10,3,15.9,3c8,0,14.9-1.8,20.6-5.3s9.9-8,12.4-13.6l-18.1-5.5C399,206,397,208,394.2,209.7z M62.8,156.3v10.5
	c-2.4-4.1-5.7-7.5-10.1-10.1c-4.3-2.6-9.1-3.9-14.5-3.9c-4.7,0-9.1,1-13,2.9c-3.9,2-7.4,4.6-10.3,8c-2.8,3.4-5,7.4-6.6,11.9
	s-2.4,9.4-2.4,14.7s0.9,10.1,2.6,14.7c1.7,4.6,4.1,8.5,7.2,12c3,3.4,6.7,6.1,10.9,8c4.3,2,8.9,2.9,13.9,2.9s9.8-1.2,14.3-3.6
	c3.2-1.6,5.9-3.8,8.1-6.5v8.7h18.6v-72.7H62.9L62.8,156.3L62.8,156.3z M62.8,200c-0.7,1.8-1.6,3.4-2.8,4.9c-1.2,1.4-2.6,2.8-4.2,3.9
	c-1.6,1.1-3.3,2-5.1,2.6c-1.8,0.6-3.7,0.9-5.4,0.9c-3,0-5.7-0.5-8.1-1.6c-2.4-1.1-4.5-2.6-6.3-4.6s-3.2-4.2-4.1-6.8
	c-1-2.6-1.5-5.4-1.5-8.5c0-2.9,0.5-5.7,1.4-8.3c0.9-2.7,2.2-5.1,3.9-7.2c1.6-2.1,3.7-3.7,6-4.9c2.4-1.2,4.9-1.8,7.7-1.8
	c1.8,0,3.7,0.4,5.6,1.1c1.9,0.7,3.7,1.7,5.4,3c1.7,1.2,3.2,2.7,4.6,4.4c1.3,1.7,2.4,3.5,3.1,5.6L62.8,200L62.8,200z M151.9,166.7
	c-2.8-4.3-6.4-7.8-10.7-10.3c-4.3-2.6-9.3-3.9-15-3.9c-5.1,0-9.7,1-13.9,3c-4.2,2-7.8,4.7-10.8,8.2s-5.3,7.5-7,12.1
	c-1.7,4.6-2.5,9.5-2.5,14.9c0,5.1,0.8,9.8,2.4,14.3s3.9,8.4,6.8,11.8c3,3.4,6.4,6.1,10.5,8.1s8.5,3,13.5,3c5.1,0,9.8-1.1,14.2-3.4
	s7.8-5.5,10.3-9.7v6.5c0,3.6-0.6,6.6-1.8,9.3c-1.2,2.6-2.8,4.8-4.9,6.4c-2,1.7-4.4,2.9-7.1,3.7c-2.4,0.7-4.9,1.1-7.5,1.2
	c-7.3-0.3-14.9-3.2-19.7-7.3l-0.5,0.9l-1.1,2l-3.2,5.7l-2.4,4.4c0.8,0.6,1.6,1.2,2.4,1.7c3.7,2.4,8.2,4.1,13.1,5.3
	c3.4,0.9,7.1,1.4,11.2,1.5c0.1,0,0.3,0,0.4,0c5.5-0.1,10.6-0.9,15.3-2.4c5-1.6,9.3-3.9,12.9-6.9c3.6-3,6.4-6.6,8.5-10.9
	c2-4.3,3.1-9.1,3.1-14.6v-67.5h-16.5V166.7z M149.6,200.4c-0.7,1.7-1.6,3.3-2.8,4.8s-2.6,2.8-4.2,3.9c-1.6,1.1-3.4,2-5.2,2.7
	s-3.8,1-5.9,1c-2.9,0-5.6-0.6-8-1.7c-2.4-1.1-4.5-2.7-6.4-4.6c-1.8-2-3.2-4.3-4.3-6.9c-1.1-2.6-1.5-5.5-1.5-8.4
	c0-2.9,0.5-5.7,1.3-8.4c0.9-2.7,2.2-5.1,3.9-7.2c1.7-2.1,3.7-3.8,6-5.1c2.4-1.2,4.9-1.9,7.9-1.9c3.9,0,7.7,1.3,11.3,3.9
	c3.6,2.6,6.2,6.1,8,10.4L149.6,200.4L149.6,200.4z M482.7,154.2v38.9c0,13.9-5.3,20.2-15.4,20.2c-9.7,0-18-5.6-18-18.3v-40.8h-19.1
	v40.3c0,23.3,13.3,33.9,32.2,33.9c8.7,0,14.1-3,19.8-8.7c0,2.8-0.3,5.3-0.9,7.6c-0.3,1.3-0.7,2.5-1.1,3.6c-1.2,2.6-2.8,4.7-4.8,6.4
	c-2,1.6-4.3,2.9-7,3.7c-2.4,0.7-4.9,1.1-7.4,1.1c-7.2-0.3-14.7-3.2-19.5-7.2l-0.5,0.9l-1.1,2l-3.1,5.6l-2.4,4.3
	c0.7,0.6,1.6,1.1,2.4,1.7c3.7,2.3,8.1,4.1,12.9,5.2c3.4,0.9,7,1.3,11,1.5c0.1,0,0.3,0,0.4,0c5.4-0.1,10.5-0.9,15.1-2.3
	c4.9-1.6,9.2-3.8,12.8-6.8c3.5-3,6.4-6.6,8.3-10.8c1.3-2.8,2.2-5.7,2.6-8.9c0.4-3.4,0.4-6.8,0.4-10.7v-62.4H482.7L482.7,154.2z"/>
<path d="M72.8,57.9c-2.6-2.1-5.7-3.9-9.4-5.3c-3.7-1.4-7.8-2.7-12.4-3.9c-3.5-0.9-6.5-1.7-9.2-2.5s-4.9-1.7-6.6-2.6
	c-1.7-1-3.1-2.1-4-3.3c-0.9-1.3-1.3-2.9-1.3-4.8c0-3.3,1.2-5.9,3.7-7.8s6.2-2.8,11.2-2.8c2.8,0,5.5,0.3,8.3,1
	c2.7,0.7,5.2,1.5,7.5,2.6c2.3,1,4.3,2.1,5.9,3.1c1.6,1,2.8,1.9,3.3,2.5l8-14.7c-4.1-2.8-8.9-5.2-14.4-7.3S51.8,9,45.3,9
	c-4.7,0-9.1,0.6-13.2,1.9s-7.7,3.1-10.8,5.6c-3.1,2.4-5.5,5.5-7.3,9.2c-1.9,3.7-2.8,7.9-2.8,12.6c0,3.6,0.5,6.7,1.7,9.2
	c1.1,2.6,2.8,4.9,4.9,6.8c2.2,2,4.9,3.7,8.2,5.1c3.3,1.4,7.1,2.8,11.6,4c3.7,1,7,2,9.9,2.9c3,0.9,5.5,1.9,7.6,2.9s3.7,2.2,4.9,3.7
	c1.2,1.4,1.7,3.1,1.7,5.1c0,6.4-5,9.6-15,9.6c-3.6,0-7.1-0.4-10.5-1.3s-6.5-1.9-9.3-3.2c-2.8-1.3-5.2-2.5-7.3-3.8s-3.5-2.3-4.2-3.1
	l-8,15.6c5.4,3.9,11.6,6.8,18.4,8.9s13.7,3.1,20.7,3.1c4.6,0,8.9-0.5,13-1.5c4.2-1,7.8-2.6,11-4.8c3.2-2.2,5.7-5.1,7.6-8.6
	s2.8-7.8,2.8-12.8c0-4.3-0.7-7.9-2.1-10.8C77.4,62.5,75.4,60,72.8,57.9z M155.5,41.6c-3-3.3-6.4-5.9-10.5-7.8
	c-4-1.9-8.5-2.9-13.2-2.9c-5.4,0-10.2,1.2-14.3,3.6c-4.2,2.4-7.5,5.6-10.1,9.8V32.2H91.6v81.4c0,10,8.1,18.1,18.1,18.1V90.5
	c2.3,4.2,5.6,7.6,9.7,10.1s9,3.7,14.6,3.7c4.5,0,8.7-1,12.5-2.8c3.8-1.9,7.1-4.5,9.8-7.8c2.8-3.3,4.9-7.3,6.4-11.7s2.3-9.3,2.3-14.4
	c0-4.9-0.8-9.6-2.5-14.1C160.7,48.8,158.5,44.9,155.5,41.6z M145.1,75.4c-0.9,2.6-2.2,4.9-3.8,6.9s-3.6,3.5-5.9,4.7
	c-2.3,1.2-4.8,1.7-7.5,1.7c-3.9,0-7.4-1.3-10.8-4c-3.3-2.6-5.8-6-7.4-10.1V58.1c0.6-1.7,1.5-3.3,2.8-4.7c1.2-1.4,2.6-2.7,4.1-3.8
	s3.2-1.9,5-2.5s3.5-0.9,5.3-0.9c2.8,0,5.4,0.5,7.8,1.6c2.4,1.1,4.4,2.6,6.2,4.4c1.7,1.9,3.1,4.1,4.1,6.7c1,2.6,1.5,5.3,1.5,8.3
	C146.4,70.1,146,72.8,145.1,75.4z M237,41.8c-3.2-3.4-7.1-6-11.6-8c-4.6-2-9.7-3-15.5-3s-10.9,1-15.5,3s-8.5,4.7-11.7,8
	c-3.2,3.4-5.6,7.3-7.4,11.7c-1.7,4.4-2.6,9.1-2.6,14.1c0,4.9,0.8,9.5,2.6,13.9c1.7,4.4,4.2,8.3,7.4,11.7c3.2,3.4,7.1,6,11.7,8
	c4.6,2,9.8,3,15.5,3c5.8,0,10.9-1,15.5-3s8.5-4.7,11.6-8c3.1-3.4,5.6-7.3,7.3-11.7c1.7-4.4,2.6-9,2.6-13.9s-0.8-9.6-2.6-14.1
	C242.6,49.2,240.2,45.2,237,41.8z M227,76.1c-1,2.6-2.2,4.9-3.9,6.7c-1.7,1.9-3.6,3.3-5.9,4.4c-2.2,1-4.7,1.5-7.3,1.5
	s-5.1-0.5-7.3-1.5s-4.2-2.5-5.9-4.4s-3-4.1-3.9-6.7c-1-2.6-1.4-5.4-1.4-8.6c0-3.1,0.4-5.9,1.4-8.5s2.2-4.9,3.9-6.7
	c1.7-1.9,3.6-3.4,5.9-4.4c2.2-1.1,4.7-1.6,7.3-1.6s5.1,0.5,7.3,1.5s4.2,2.5,5.9,4.4s3,4.2,3.9,6.7c1,2.6,1.4,5.5,1.4,8.5
	C228.4,70.6,227.9,73.5,227,76.1z M357.3,53.5c4.7-5.6,7.3-12.8,7.3-20.1v-1.3h-58.5v15.1h35.6l-29.8,35.6
	c-4.7,5.6-7.3,12.8-7.3,20.1v1.3h60.8V89.1h-37.6L357.3,53.5z M435.9,41.4c-3.2-3.3-7.1-6-11.7-8s-9.8-3-15.5-3s-11,1-15.7,3
	c-4.6,2-8.7,4.7-11.9,8.1c-3.3,3.4-5.8,7.4-7.5,11.8s-2.6,9.3-2.6,14.3c0,4.9,0.9,9.6,2.6,14s4.3,8.3,7.6,11.7c3.3,3.3,7.3,6,11.8,8
	c4.6,1.9,9.8,3,15.5,3c7.9,0,14.8-1.7,20.6-5.3c5.7-3.5,9.9-8,12.6-13.4l0.3-0.5l-16.4-4.6l-0.1,0.4c-1.1,2.8-3.2,5-6.3,6.7
	c-3.1,1.7-6.4,2.6-9.9,2.6c-2.2,0-4.5-0.4-6.5-1.2c-2.1-0.8-4-1.9-5.6-3.4c-1.7-1.5-3-3.3-4-5.4c-1-2-1.6-4.2-1.9-6.7h54.2l0.1-0.3
	c0.2-0.7,0.3-1.7,0.3-2.8c0.1-1.1,0.1-2.2,0.1-3.4c0-4.7-0.8-9.4-2.5-13.9C441.5,48.7,439.1,44.7,435.9,41.4z M390.7,60.9
	c0.2-2.3,0.8-4.5,1.7-6.5c1-2.1,2.3-3.9,3.9-5.4c1.5-1.5,3.4-2.6,5.5-3.5c2.1-0.8,4.2-1.2,6.6-1.2c4.7,0,8.9,1.5,12.3,4.6
	c3.2,3,5.1,7,5.6,11.9L390.7,60.9L390.7,60.9z M497.4,30.7c-0.5,0-1.2,0-2.2,0c-1.9,0-3.9,0.4-5.9,1.2c-2.1,0.8-4,1.9-6,3.3
	c-2,1.5-3.8,3.1-5.6,5.1c-1.7,1.9-3.2,4.2-4.5,6.6V32h-16.7v54c0,10.1,8.2,18.2,18.2,18.2V59.7c1.9-4,5-7.1,9.4-9.2
	c4.4-2.1,9.3-3.1,14.8-3.2V30.8C498.3,30.7,497.9,30.7,497.4,30.7z M280.2,9.1h-18.1v23h-9.3V46h9.3v40.6c0,3.1,0.5,5.8,1.5,8
	s2.3,4,4,5.4s3.6,2.4,5.8,3c2.1,0.6,4.4,0.9,6.8,1V46H295V32h-14.8L280.2,9.1L280.2,9.1z"/>
</svg>
