<?xml version="1.0" encoding="utf-8"?>
<!-- Generator: Adobe Illustrator 26.2.1, SVG Export Plug-In . SVG Version: 6.00 Build 0)  -->
<svg version="1.1" id="Layer_1" xmlns="http://www.w3.org/2000/svg" xmlns:xlink="http://www.w3.org/1999/xlink" x="0px" y="0px"
	 viewBox="0 0 511 258.3" style="enable-background:new 0 0 511 258.3;" xml:space="preserve">
<style type="text/css">
	.st0{fill:#E96A24;}
	.st1{fill:#FFFFFF;}
</style>
<path class="st0" d="M177.5,44.4c13.9,0,21.9-1.4,28.6-10.2c2.2-3.1,5.1-7.2,7.2-13.2c3.2-8.1,8.2-13.2,8.2-13.2
	c-25.7,0-35.4,4.5-40.4,14.6C176.7,30.2,177.5,44.2,177.5,44.4z"/>
<path class="st1" d="M181.3,139c0,2.5-0.4,4.9-1.4,7.1c-1,2.2-2.2,4.2-3.7,5.7c-1.6,1.6-3.5,3-5.7,3.7c-2.2,1-4.5,1.4-7,1.4
	c-2.5,0-4.9-0.4-7-1.4c-2.2-1-4-2.2-5.7-3.7c-1.6-1.6-3-3.6-3.7-5.7c-1-2.2-1.4-4.6-1.4-7.1V46.6c-0.3-19.8-16.4-36-36.3-36V139
	c0,7.4,1.4,14.5,4.2,21c2.8,6.6,6.7,12.3,11.6,17.1c4.9,4.9,10.6,8.8,17.1,11.6s13.5,4.2,21,4.2c6.7,0,13.1-1.1,19.4-3.5
	c6.1-2.4,11.7-5.7,16.7-10.3c4.9,4.5,10.4,7.9,16.5,10.3s12.5,3.5,19.2,3.5c7.4,0,14.5-1.4,21-4.2c6.5-2.8,12.3-6.7,17.1-11.6
	s8.8-10.6,11.6-17.1c2.8-6.6,4.2-13.5,4.2-21v-19.2h58c2.5,0,4.9,0.4,7.2,1.4c2.2,1,4.2,2.2,5.8,3.9c1.6,1.6,3,3.6,3.9,5.7
	c1,2.2,1.4,4.6,1.4,7.1c0,2.5-0.4,4.9-1.4,7.1s-2.2,4.2-3.9,5.7c-1.6,1.6-3.6,3-5.8,3.9c-2.2,1-4.6,1.4-7.2,1.4h-16.9H328h-11h-2.2
	c-6.6,0-11,2.2-15.3,11c-3,5-4.3,9.5-7.2,14.5c-4.3,7.2-9.5,11-9.5,11h8.1h55.8h0.3c7.6,0,14.6-1.4,21.3-4.3
	c6.7-2.8,12.4-6.7,17.4-11.7c5-5,8.9-10.7,11.7-17.4s4.3-13.8,4.3-21.3c0-6.8-1.2-13.2-3.6-19.5c-2.4-6.2-5.8-11.8-10.4-16.9
	c4.6-5,8.1-10.6,10.4-16.9c2.4-6.2,3.6-12.7,3.6-19.5c0-7.6-1.4-14.6-4.3-21.3c-2.8-6.7-6.7-12.4-11.7-17.4c-5-5-10.7-8.9-17.4-11.7
	c-6.7-2.8-13.8-4.3-21.3-4.3H289h-32h-3.7v128.4c0,2.5-0.4,4.9-1.4,7.1c-1,2.2-2.2,4.2-3.9,5.7c-1.6,1.6-3.5,3-5.7,3.7
	c-2.2,1-4.5,1.4-7,1.4c-2.5,0-4.9-0.4-7-1.4c-2.2-1-4-2.2-5.7-3.7c-1.6-1.6-3-3.6-3.7-5.7c-1-2.2-1.4-4.6-1.4-7.1V42.1l-0.1,0.1
	v-0.1c0,0-1.1,1.5-3.3,3.6c-0.3,0.3-0.5,0.5-0.9,0.9c-1.6,1.5-3.9,3.2-6.6,4.9c-5,2.8-9.3,4.3-14.3,7.1c-7.1,3.6-9.9,7.1-10.6,12
	c0,0.1,0,0.1,0,0.3c0,0.4-0.1,0.9-0.1,1.4L181.3,139z M364,72.3c-1,2.2-2.2,4.2-3.9,5.7c-1.6,1.6-3.6,3-5.8,3.9
	c-2.2,1-4.6,1.4-7.2,1.4h-57.9V47h58c2.5,0,4.9,0.4,7.2,1.4c2.2,1,4.2,2.2,5.8,3.9c1.6,1.6,3,3.6,3.9,5.7c1,2.2,1.4,4.6,1.4,7.1
	C365.4,67.7,365,70.1,364,72.3z M159,217.5l-9.5,32.6h-4.7l-7.6-26.2l-7.8,26.2h-4.7l-9.1-32.6h4.6l7.1,27.6l7.8-27.6h4.9l7.4,27.4
	l7.1-27.4H159z M167.9,217.5V250h-4.2v-32.6H167.9z M188.4,233.7l10,16.3h-4.9l-7.8-12.7l-7.4,12.7h-4.7l10-16.3l-10-16.3h4.7
	l7.8,12.7l7.4-12.7h4.9L188.4,233.7z M237.5,234.7c1,0.9,1.8,1.8,2.4,3c0.5,1.1,0.9,2.4,0.9,3.6c0,1.6-0.4,3.2-1.2,4.5
	c-0.9,1.2-2.1,2.4-3.6,3.1c-1.6,0.7-3.5,1.1-5.7,1.1h-12.1v-32.6h11.7c2.2,0,4,0.4,5.7,1.1c1.5,0.7,2.8,1.6,3.5,3
	c0.9,1.2,1.1,2.6,1.1,4.2c0,2-0.5,3.5-1.5,4.7s-2.4,2.2-4.2,2.8C235.5,233.3,236.6,233.9,237.5,234.7z M222.2,231.5h7.1
	c2,0,3.5-0.4,4.6-1.4c1.1-1,1.6-2.2,1.6-3.9s-0.5-3.1-1.6-3.9c-1.1-1-2.6-1.4-4.7-1.4h-7V231.5z M234.6,245c1.2-1,1.8-2.5,1.8-4.2
	c0-1.8-0.5-3.2-1.8-4.3c-1.2-1.1-3-1.5-5-1.5h-7.4v11.7h7.6C231.8,246.5,233.5,246.1,234.6,245z M269.3,224.4V250h-4.2v-3.7
	c-0.9,1.2-2,2.4-3.3,3.1c-1.4,0.7-3.1,1.1-4.7,1.1c-2,0-3.7-0.4-5.5-1.2c-1.5-0.9-2.8-2.1-3.7-3.7s-1.4-3.6-1.4-6v-15h4.2V239
	c0,2.5,0.7,4.5,2,5.8c1.2,1.4,3.1,2.1,5.3,2.1c2.2,0,4-0.7,5.5-2.1c1.2-1.4,2-3.5,2-6.1v-14.1h4L269.3,224.4L269.3,224.4z
	 M276.5,219.4c-0.5-0.5-0.9-1.2-0.9-2.1c0-0.9,0.3-1.5,0.9-2.1c0.5-0.5,1.2-0.9,2.1-0.9c0.9,0,1.4,0.3,2,0.9
	c0.5,0.5,0.9,1.2,0.9,2.1c0,0.9-0.3,1.5-0.9,2.1c-0.5,0.5-1.2,0.9-2,0.9C277.8,220.2,277.1,219.9,276.5,219.4z M280.7,224.4V250
	h-4.2v-25.6H280.7z M292.2,215.4v34.5h-4.2v-34.5H292.2z M299.4,230.3c1.1-2,2.5-3.5,4.3-4.6c1.8-1.1,3.9-1.6,6.2-1.6
	c2,0,3.9,0.4,5.6,1.4c1.6,1,3.1,2.1,3.9,3.6v-13.5h4.3V250h-4.3v-4.9c-0.9,1.5-2.1,2.8-3.7,3.7s-3.6,1.5-5.8,1.5s-4.3-0.5-6.1-1.6
	c-1.8-1.1-3.3-2.6-4.3-4.7c-1.1-2.1-1.5-4.3-1.5-7C297.9,234.4,298.4,232.2,299.4,230.3z M318.3,232c-0.9-1.4-1.8-2.5-3.2-3.3
	c-1.2-0.7-2.8-1.1-4.3-1.1c-1.5,0-3.1,0.4-4.3,1.1c-1.2,0.7-2.4,1.8-3.1,3.2c-0.9,1.4-1.1,3.1-1.1,5s0.4,3.6,1.1,5.1
	c0.9,1.4,1.8,2.5,3.1,3.3c1.2,0.7,2.8,1.1,4.3,1.1c1.5,0,3.1-0.4,4.3-1.1c1.2-0.7,2.4-1.8,3.2-3.3c0.9-1.4,1.1-3.2,1.1-5
	C319.4,235.1,319.1,233.4,318.3,232z M354.1,238.6h-20.5c0.1,2.5,1,4.5,2.5,6c1.5,1.5,3.5,2.2,5.7,2.2c1.8,0,3.3-0.4,4.6-1.2
	c1.2-0.9,2.1-2,2.6-3.5h4.6c-0.7,2.5-2.1,4.5-4,6c-2.1,1.5-4.6,2.4-7.7,2.4c-2.4,0-4.6-0.5-6.6-1.6c-2-1.1-3.5-2.6-4.5-4.6
	c-1.1-2-1.6-4.3-1.6-7c0-2.6,0.5-5,1.5-7c1.1-2,2.5-3.5,4.5-4.6c2-1.1,4.2-1.6,6.6-1.6c2.4,0,4.6,0.5,6.4,1.5
	c1.8,1.1,3.3,2.5,4.3,4.3s1.5,3.9,1.5,6.2C354.2,236.8,354.2,237.7,354.1,238.6z M348.8,231.2c-0.7-1.2-1.6-2.1-3-2.8
	c-1.2-0.5-2.6-1-4-1c-2.2,0-4,0.7-5.6,2.1c-1.5,1.4-2.4,3.3-2.5,5.8h16.2C349.9,233.9,349.5,232.3,348.8,231.2z M367.3,225.2
	c1.4-1,3.1-1.4,5-1.4v4.3h-1.1c-4.7,0-7.1,2.6-7.1,7.8v13.9h-4.2v-25.6h4.2v4.9C364.8,227.6,366,226.2,367.3,225.2z M381.1,249.3
	c-1.5-0.7-2.8-1.6-3.6-2.8c-0.9-1.2-1.4-2.5-1.5-4.2h4.3c0.1,1.4,0.7,2.4,1.8,3.2c1.1,0.9,2.5,1.2,4.2,1.2c1.6,0,3-0.4,3.9-1.1
	c1-0.7,1.4-1.6,1.4-3c0-1.1-0.5-2-1.5-2.5c-1-0.5-2.5-1.1-4.6-1.6c-2-0.5-3.5-1-4.6-1.5c-1.1-0.5-2.2-1.2-3.1-2.2
	c-0.9-1-1.2-2.2-1.2-3.9c0-1.4,0.4-2.5,1.1-3.6c0.7-1.1,1.8-2,3.2-2.6c1.4-0.7,3.1-1,4.9-1c2.8,0,5.1,0.7,6.8,2.1
	c1.8,1.4,2.6,3.3,2.8,5.8h-4.2c-0.1-1.4-0.7-2.5-1.6-3.3c-1-0.9-2.2-1.2-3.9-1.2c-1.5,0-2.8,0.3-3.6,1c-0.9,0.7-1.4,1.5-1.4,2.6
	c0,0.9,0.3,1.5,0.9,2.1c0.5,0.5,1.2,1,2.1,1.2c0.9,0.3,2,0.7,3.5,1.1c1.8,0.5,3.3,1,4.5,1.5c1.1,0.4,2.1,1.2,3,2.1
	c0.9,1,1.2,2.2,1.2,3.7c0,1.4-0.4,2.6-1.1,3.7c-0.7,1.1-1.8,2-3.2,2.6c-1.4,0.7-3.1,1-4.9,1C384.3,250.3,382.6,250,381.1,249.3z"/>
</svg>
